<svg width="71" height="72" viewBox="0 0 71 72" fill="none" xmlns="http://www.w3.org/2000/svg">
<g clip-path="url(#clip0_1_1552)">
<path d="M35.2965 71.5C54.2953 71.5 69.6969 55.6061 69.6969 36C69.6969 16.3939 54.2953 0.5 35.2965 0.5C16.2976 0.5 0.896027 16.3939 0.896027 36C0.896027 55.6061 16.2976 71.5 35.2965 71.5Z" fill="white" stroke="#DCDDEB"/>
<path d="M46.0387 53.3845C46.0267 53.3845 46.0148 53.3845 46.0028 53.3845C40.2482 53.19 33.5066 47.4336 28.8616 42.6371C24.2107 37.8407 18.6326 30.8805 18.4531 24.9698C18.3873 22.8956 23.3195 19.2072 23.3703 19.1701C24.6505 18.2504 26.0711 18.5775 26.6544 19.4109C27.0492 19.9757 30.7879 25.8216 31.1946 26.4853C31.6163 27.1736 31.5535 28.1983 31.0271 29.2261C30.737 29.7971 29.7739 31.5441 29.3223 32.359C29.8098 33.075 31.0989 34.8313 33.7608 37.5783C36.4258 40.3253 38.1247 41.6587 38.8215 42.1618C39.6112 41.6957 41.304 40.7019 41.8574 40.4025C42.8383 39.8654 43.8254 39.7975 44.4983 40.2235C45.1863 40.6587 50.8362 44.5354 51.3565 44.9088C51.7933 45.2268 52.0744 45.77 52.1312 46.4027C52.1851 47.0416 51.9937 47.7176 51.5959 48.3071C51.5629 48.3565 48.0306 53.3845 46.0387 53.3845Z" fill="#0075FF"/>
</g>
<defs>
<clipPath id="clip0_1_1552">
<rect width="69.7699" height="72" fill="white" transform="translate(0.411514)"/>
</clipPath>
</defs>
</svg>
